<mxfile modified="2022-05-08T22:47:40.104Z" host="app.diagrams.net" agent="5.0 (Windows NT 10.0; Win64; x64) AppleWebKit/537.36 (KHTML, like Gecko) Chrome/101.0.4951.54 Safari/537.36 Edg/101.0.1210.39" etag="BMErmH3QiVlPLFPeMhws" compressed="false" version="18.0.2" type="google">
  <diagram id="m_jPOuPc1K8urDx53pPb" name="ACCREDITATION VIEW">
    <mxGraphModel grid="1" page="1" gridSize="10" guides="1" tooltips="1" connect="1" arrows="1" fold="1" pageScale="1" pageWidth="827" pageHeight="1169" math="0" shadow="0">
      <root>
        <mxCell id="Wr46-cpaIOX7COfvT25F-0" />
        <mxCell id="e3VA0TGIdCb1FXBIKUJw-0" value="About" parent="Wr46-cpaIOX7COfvT25F-0" />
        <mxCell id="Wr46-cpaIOX7COfvT25F-1" value="Title" parent="Wr46-cpaIOX7COfvT25F-0" />
        <mxCell id="naX2I7Yo5ihWtHJLQClf-2" value="Accreditation View" style="text;html=1;strokeColor=none;fillColor=none;align=center;verticalAlign=middle;whiteSpace=wrap;rounded=0;fontSize=48;opacity=30;" vertex="1" parent="Wr46-cpaIOX7COfvT25F-1">
          <mxGeometry x="210" y="230" width="480" height="320" as="geometry" />
        </mxCell>
        <UserObject label="" tooltip="ABOUT&#xa;&#xa;The View describes what is needed to go live, including:&#xa;&#xa;&#xa;&#xa;- Unit Testing&#xa;&#xa;- Behavioural Testing&#xa;&#xa;- Security Testing&#xa;&#xa;- Maintainability (ie, includes Dev Quality) Testing&#xa;&#xa;- Deliverables&#xa;&#xa;- Operations Documentation&#xa;&#xa;- Maintainability Documentation&#xa;&#xa;- DR Proccesses (Automated or not)" id="07_tAMlNrROBA72gnV15-0">
          <mxCell style="shape=image;html=1;verticalAlign=top;verticalLabelPosition=bottom;labelBackgroundColor=#ffffff;imageAspect=0;aspect=fixed;image=https://cdn1.iconfinder.com/data/icons/hawcons/32/699014-icon-28-information-128.png;shadow=0;dashed=0;fontFamily=Helvetica;fontSize=12;fontColor=#000000;align=center;strokeColor=#000000;fillColor=#505050;dashPattern=1 1;" vertex="1" parent="Wr46-cpaIOX7COfvT25F-1">
            <mxGeometry x="660" y="380" width="20" height="20" as="geometry" />
          </mxCell>
        </UserObject>
      </root>
    </mxGraphModel>
  </diagram>
</mxfile>
